<svg width="162" height="44" viewBox="0 0 162 44" fill="none" xmlns="http://www.w3.org/2000/svg">
<rect x="4.64473" y="5.3" width="2.62388" height="16.594" rx="1.31194" stroke="#4D4444" stroke-width="0.6"/>
<rect x="7.43873" y="5.3" width="2.62388" height="16.594" rx="1.31194" stroke="#4D4444" stroke-width="0.6"/>
<rect x="10.2329" y="5.3" width="2.62388" height="16.594" rx="1.31194" stroke="#4D4444" stroke-width="0.6"/>
<rect x="13.0268" y="5.3" width="2.62388" height="16.594" rx="1.31194" stroke="#4D4444" stroke-width="0.6"/>
<rect x="15.8209" y="5.3" width="2.62388" height="16.594" rx="1.31194" stroke="#4D4444" stroke-width="0.6"/>
<rect x="18.6149" y="5.3" width="2.62388" height="16.594" rx="1.31194" stroke="#4D4444" stroke-width="0.6"/>
<rect x="21.8388" y="21.8941" width="2.62388" height="16.594" rx="1.31194" transform="rotate(-90 21.8388 21.8941)" stroke="#4D4444" stroke-width="0.6"/>
<rect x="21.8389" y="19.1001" width="2.62388" height="16.594" rx="1.31194" transform="rotate(-90 21.8389 19.1001)" stroke="#4D4444" stroke-width="0.6"/>
<rect x="21.8389" y="16.306" width="2.62388" height="16.594" rx="1.31194" transform="rotate(-90 21.8389 16.306)" stroke="#4D4444" stroke-width="0.6"/>
<rect x="21.8389" y="13.512" width="2.62388" height="16.594" rx="1.31194" transform="rotate(-90 21.8389 13.512)" stroke="#4D4444" stroke-width="0.6"/>
<rect x="21.8389" y="10.7181" width="2.62388" height="16.594" rx="1.31194" transform="rotate(-90 21.8389 10.7181)" stroke="#4D4444" stroke-width="0.6"/>
<rect x="21.8389" y="7.92388" width="2.62388" height="16.594" rx="1.31194" transform="rotate(-90 21.8389 7.92388)" stroke="#4D4444" stroke-width="0.6"/>
<rect x="38.4328" y="39.0882" width="2.62388" height="16.594" rx="1.31194" transform="rotate(-180 38.4328 39.0882)" stroke="#4D4444" stroke-width="0.6"/>
<rect x="35.6388" y="39.0882" width="2.62388" height="16.594" rx="1.31194" transform="rotate(-180 35.6388 39.0882)" stroke="#4D4444" stroke-width="0.6"/>
<rect x="32.8446" y="39.0882" width="2.62388" height="16.594" rx="1.31194" transform="rotate(-180 32.8446 39.0882)" stroke="#4D4444" stroke-width="0.6"/>
<rect x="30.0507" y="39.0882" width="2.62388" height="16.594" rx="1.31194" transform="rotate(-180 30.0507 39.0882)" stroke="#4D4444" stroke-width="0.6"/>
<rect x="27.2566" y="39.0882" width="2.62388" height="16.594" rx="1.31194" transform="rotate(-180 27.2566 39.0882)" stroke="#4D4444" stroke-width="0.6"/>
<rect x="24.4626" y="39.0882" width="2.62388" height="16.594" rx="1.31194" transform="rotate(-180 24.4626 39.0882)" stroke="#4D4444" stroke-width="0.6"/>
<rect x="21.2388" y="22.4941" width="2.62388" height="16.594" rx="1.31194" transform="rotate(90 21.2388 22.4941)" stroke="#4D4444" stroke-width="0.6"/>
<rect x="21.2386" y="25.288" width="2.62388" height="16.594" rx="1.31194" transform="rotate(90 21.2386 25.288)" stroke="#4D4444" stroke-width="0.6"/>
<rect x="21.2386" y="28.0822" width="2.62388" height="16.594" rx="1.31194" transform="rotate(90 21.2386 28.0822)" stroke="#4D4444" stroke-width="0.6"/>
<rect x="21.2386" y="30.8762" width="2.62388" height="16.594" rx="1.31194" transform="rotate(90 21.2386 30.8762)" stroke="#4D4444" stroke-width="0.6"/>
<rect x="21.2386" y="33.6701" width="2.62388" height="16.594" rx="1.31194" transform="rotate(90 21.2386 33.6701)" stroke="#4D4444" stroke-width="0.6"/>
<rect x="21.2386" y="36.4643" width="2.62388" height="16.594" rx="1.31194" transform="rotate(90 21.2386 36.4643)" stroke="#4D4444" stroke-width="0.6"/>
<path d="M56.9295 22.1V8.39605H50.9775V5.30005H66.1935V8.39605H60.2895V22.1H56.9295Z" fill="#4D4444"/>
<path d="M68.2289 22.1V5.30005H82.1009V8.39605H71.5889V12.14H81.7169V15.236H71.5889V18.9801H82.1009V22.1H68.2289Z" fill="#4D4444"/>
<path d="M95.1342 13.58L102.262 22.1H97.8942L92.9502 16.196L88.0062 22.1H83.6382L90.7662 13.58L83.8302 5.30005H88.1982L92.9502 10.964L97.7022 5.30005H102.07L95.1342 13.58Z" fill="#4D4444"/>
<path d="M108.703 22.1V8.39605H102.751V5.30005H117.967V8.39605H112.063V22.1H108.703Z" fill="#4D4444"/>
<path d="M123.338 5.30005V22.1H119.978V5.30005H123.338Z" fill="#4D4444"/>
<path d="M126.377 22.1V5.30005H129.737V18.8841H139.721V22.1H126.377Z" fill="#4D4444"/>
<path d="M142.784 22.1V5.30005H156.656V8.39605H146.144V12.14H156.272V15.236H146.144V18.9801H156.656V22.1H142.784Z" fill="#4D4444"/>
<path d="M56.493 39V31.3H62.851V32.719H58.033V34.435H62.675V35.854H58.033V37.57H62.851V39H56.493Z" fill="#DE541E"/>
<path d="M75.9746 35.095L79.2416 39H77.2396L74.9736 36.294L72.7076 39H70.7056L73.9726 35.095L70.7936 31.3H72.7956L74.9736 33.896L77.1516 31.3H79.1536L75.9746 35.095Z" fill="#DE541E"/>
<path d="M87.0997 39V31.3H91.0377C92.6877 31.3 94.0737 32.389 94.0737 34.028C94.0737 35.579 92.6107 36.756 91.0377 36.756H88.6397V39H87.0997ZM92.5337 34.028C92.5337 33.269 91.8957 32.719 91.0377 32.719H88.6397V35.315H91.0377C91.8847 35.315 92.5337 34.754 92.5337 34.028Z" fill="#DE541E"/>
<path d="M102.306 39V31.3H108.664V32.719H103.846V34.435H108.488V35.854H103.846V37.57H108.664V39H102.306Z" fill="#DE541E"/>
<path d="M122.558 39L120.853 36.756H118.763V39H117.223V31.3H121.183C122.833 31.3 124.197 32.389 124.197 34.028C124.197 35.106 123.493 36.008 122.536 36.459L124.472 39H122.558ZM122.657 34.028C122.657 33.269 122.041 32.719 121.183 32.719H118.763V35.315H121.183C122.03 35.315 122.657 34.754 122.657 34.028Z" fill="#DE541E"/>
<path d="M134.426 39V32.719H131.698V31.3H138.672V32.719H135.966V39H134.426Z" fill="#DE541E"/>
</svg>
