<svg width="40" height="40" viewBox="0 0 40 40" fill="none" xmlns="http://www.w3.org/2000/svg">
<path d="M16.875 38.75C19.0744 38.75 20.895 37.1169 21.2 35H27.8662L27.0581 35.8081L27.9419 36.6919L29.8169 34.8169C29.8751 34.759 29.9213 34.6901 29.9529 34.6143C29.9844 34.5385 30.0006 34.4571 30.0006 34.375C30.0006 34.2929 29.9844 34.2115 29.9529 34.1357C29.9213 34.0599 29.8751 33.991 29.8169 33.9331L27.9419 32.0581L27.0581 32.9419L27.8662 33.75H21.2C20.895 31.6331 19.0744 30 16.875 30C14.4625 30 12.5 31.9625 12.5 34.375C12.5 36.7875 14.4625 38.75 16.875 38.75ZM16.875 31.25C18.5981 31.25 20 32.6519 20 34.375C20 36.0981 18.5981 37.5 16.875 37.5C15.1519 37.5 13.75 36.0981 13.75 34.375C13.75 32.6519 15.1519 31.25 16.875 31.25Z" fill="#DE541E"/>
<path d="M34.375 38.75C36.7875 38.75 38.75 36.7875 38.75 34.375C38.75 31.9625 36.7875 30 34.375 30C31.9625 30 30 31.9625 30 34.375C30 36.7875 31.9625 38.75 34.375 38.75ZM34.375 31.25C36.0981 31.25 37.5 32.6519 37.5 34.375C37.5 36.0981 36.0981 37.5 34.375 37.5C32.6519 37.5 31.25 36.0981 31.25 34.375C31.25 32.6519 32.6519 31.25 34.375 31.25ZM14.375 15.625C12.1756 15.625 10.355 17.2581 10.05 19.375H9.0625C4.75437 19.375 1.25 22.8794 1.25 27.1875C1.25 31.4956 4.75437 35 9.0625 35H10.3663L9.55813 35.8081L10.4419 36.6919L12.3169 34.8169C12.3751 34.759 12.4213 34.6901 12.4529 34.6143C12.4844 34.5385 12.5006 34.4571 12.5006 34.375C12.5006 34.2929 12.4844 34.2115 12.4529 34.1357C12.4213 34.0599 12.3751 33.991 12.3169 33.9331L10.4419 32.0581L9.55813 32.9419L10.3663 33.75H9.0625C5.44375 33.75 2.5 30.8062 2.5 27.1875C2.5 23.5688 5.44375 20.625 9.0625 20.625H10.05C10.355 22.7419 12.1756 24.375 14.375 24.375C16.7875 24.375 18.75 22.4125 18.75 20C18.75 17.5875 16.7875 15.625 14.375 15.625ZM14.375 23.125C12.6519 23.125 11.25 21.7231 11.25 20C11.25 18.2769 12.6519 16.875 14.375 16.875C16.0981 16.875 17.5 18.2769 17.5 20C17.5 21.7231 16.0981 23.125 14.375 23.125ZM16.6919 3.30813L15.8081 4.19187L16.6163 5H9.95C9.645 2.88312 7.825 1.25 5.625 1.25C3.2125 1.25 1.25 3.2125 1.25 5.625C1.25 8.0375 3.2125 10 5.625 10C7.82438 10 9.645 8.36688 9.95 6.25H16.6163L15.8081 7.05813L16.6919 7.94187L18.5669 6.06687C18.6251 6.00897 18.6713 5.94012 18.7029 5.86428C18.7344 5.78845 18.7506 5.70713 18.7506 5.625C18.7506 5.54287 18.7344 5.46155 18.7029 5.38572C18.6713 5.30988 18.6251 5.24103 18.5669 5.18313L16.6919 3.30813ZM5.625 8.75C3.90188 8.75 2.5 7.34812 2.5 5.625C2.5 3.90188 3.90188 2.5 5.625 2.5C7.34812 2.5 8.75 3.90188 8.75 5.625C8.75 7.34812 7.34812 8.75 5.625 8.75Z" fill="#DE541E"/>
<path d="M38.75 12.8125C38.75 8.50437 35.2456 5 30.9375 5H27.45C27.145 2.88312 25.325 1.25 23.125 1.25C20.7125 1.25 18.75 3.2125 18.75 5.625C18.75 8.0375 20.7125 10 23.125 10C25.3244 10 27.145 8.36688 27.45 6.25H30.9375C34.5562 6.25 37.5 9.19375 37.5 12.8125C37.5 16.4312 34.5562 19.375 30.9375 19.375H20.8837L21.6919 18.5669L20.8081 17.6831L18.9331 19.5581C18.8749 19.616 18.8286 19.6849 18.7971 19.7607C18.7656 19.8365 18.7493 19.9179 18.7493 20C18.7493 20.0821 18.7656 20.1635 18.7971 20.2393C18.8286 20.3151 18.8749 20.384 18.9331 20.4419L20.8081 22.3169L21.6919 21.4331L20.8837 20.625H30.9375C35.2456 20.625 38.75 17.1206 38.75 12.8125ZM23.125 8.75C21.4019 8.75 20 7.34812 20 5.625C20 3.90188 21.4019 2.5 23.125 2.5C24.8481 2.5 26.25 3.90188 26.25 5.625C26.25 7.34812 24.8481 8.75 23.125 8.75Z" fill="#DE541E"/>
</svg>
