<svg width="40" height="40" viewBox="0 0 40 40" fill="none" xmlns="http://www.w3.org/2000/svg">
<path d="M33.8359 37.2813H4.59375C4.25 37.2813 3.96875 37.5625 3.96875 37.9063C3.96875 38.25 4.25 38.5313 4.59375 38.5313H33.8359C34.1797 38.5313 34.4609 38.25 34.4609 37.9063C34.4609 37.5625 34.1797 37.2813 33.8359 37.2813ZM5.30469 28.2656C4.96094 28.2656 4.67969 28.5469 4.67969 28.8906V35.3125C4.67969 35.6563 4.96094 35.9375 5.30469 35.9375H9.72656C10.0703 35.9375 10.3516 35.6563 10.3516 35.3125V28.8906C10.3516 28.5469 10.0703 28.2656 9.72656 28.2656H5.30469ZM9.10156 34.6953H5.92969V29.5234H9.10156V34.6953ZM12.75 26.125C12.4062 26.125 12.125 26.4062 12.125 26.75V35.3125C12.125 35.6563 12.4062 35.9375 12.75 35.9375H17.1719C17.5156 35.9375 17.7969 35.6563 17.7969 35.3125V26.75C17.7969 26.4062 17.5156 26.125 17.1719 26.125H12.75ZM16.5469 34.6953H13.375V27.3828H16.5469V34.6953ZM20.5 22.6719C20.1562 22.6719 19.875 22.9531 19.875 23.2969V35.3203C19.875 35.6641 20.1562 35.9453 20.5 35.9453H24.9219C25.2656 35.9453 25.5469 35.6641 25.5469 35.3203V23.2969C25.5469 22.9531 25.2656 22.6719 24.9219 22.6719H20.5ZM24.2969 34.6953H21.125V23.9219H24.2969V34.6953ZM27.8594 16.1172V35.3203C27.8594 35.6641 28.1406 35.9453 28.4844 35.9453H32.9063C33.25 35.9453 33.5313 35.6641 33.5313 35.3203V16.1172C33.5313 15.7734 33.25 15.4922 32.9063 15.4922H28.4844C28.1406 15.4922 27.8594 15.7656 27.8594 16.1172ZM29.1094 16.7422H32.2813V34.6953H29.1094V16.7422ZM5.1875 26.0313H5.22656L5.84375 25.9922C11.2969 25.6406 16.5391 23.7891 21.0078 20.6484C25.2969 17.6328 28.7031 13.5469 30.8984 8.79688L31.6484 10.7734C31.7422 11.0234 31.9844 11.1797 32.2344 11.1797C32.3047 11.1797 32.3828 11.1641 32.4531 11.1406C32.7734 11.0156 32.9375 10.6563 32.8125 10.3359L31.4844 6.79688C31.4219 6.64063 31.3047 6.51563 31.1562 6.44531C31.0078 6.375 30.8359 6.375 30.6797 6.42969L27.1406 7.77344C26.8203 7.89844 26.6562 8.25781 26.7812 8.57813C26.9062 8.89844 27.2656 9.0625 27.5859 8.9375L29.8594 8.07031C27.7578 12.7031 24.4609 16.6875 20.2969 19.6172C16.0156 22.625 10.9922 24.3984 5.76563 24.7344L5.14844 24.7734C4.80469 24.7969 4.53906 25.0938 4.5625 25.4375C4.58594 25.7734 4.86719 26.0313 5.1875 26.0313Z" fill="#DE541E"/>
</svg>
