<svg width="40" height="40" viewBox="0 0 40 40" fill="none" xmlns="http://www.w3.org/2000/svg">
<path d="M19.7956 23.0113C19.7068 23.0114 19.619 22.9925 19.5381 22.9556L1.57249 14.8419C1.46426 14.7929 1.37222 14.7141 1.30716 14.6147C1.2421 14.5154 1.20671 14.3995 1.20513 14.2807C1.20356 14.1619 1.23587 14.0452 1.29827 13.9441C1.36068 13.843 1.4506 13.7618 1.55749 13.71L19.5231 5.01688C19.6067 4.97641 19.6983 4.95507 19.7911 4.95442C19.884 4.95377 19.9758 4.97383 20.06 5.01313L37.4462 13.125C37.5526 13.1748 37.6428 13.2535 37.7065 13.3521C37.7702 13.4508 37.8048 13.5654 37.8064 13.6828C37.8079 13.8002 37.7764 13.9157 37.7154 14.016C37.6543 14.1163 37.5662 14.1974 37.4612 14.25L20.075 22.9456C19.9882 22.9889 19.8926 23.0113 19.7956 23.0113ZM3.30499 14.2531L19.7819 21.6944L35.745 13.7125L19.8006 6.27501L3.30499 14.2531Z" fill="white"/>
<path d="M19.7937 27.0688C19.7051 27.0686 19.6176 27.0497 19.5368 27.0131L1.57371 18.9006C1.46548 18.8517 1.37344 18.7729 1.30838 18.6735C1.24332 18.5741 1.20793 18.4582 1.20635 18.3395C1.20478 18.2207 1.23709 18.1039 1.29949 18.0028C1.3619 17.9018 1.45182 17.8206 1.55871 17.7688L5.89621 15.6681L6.44121 16.7931L3.30559 18.3125L19.78 25.75L35.745 17.7688L32.7231 16.3588L33.2518 15.2256L37.4456 17.1825C37.552 17.2322 37.6422 17.3109 37.706 17.4095C37.7697 17.5081 37.8044 17.6227 37.806 17.7401C37.8077 17.8575 37.7762 17.973 37.7152 18.0734C37.6542 18.1737 37.5662 18.2549 37.4612 18.3075L20.0731 27C19.9866 27.0443 19.8909 27.0679 19.7937 27.0688Z" fill="white"/>
<path d="M19.7937 32.2813C19.705 32.2814 19.6172 32.2627 19.5362 32.2263L1.57436 24.1131C1.46627 24.0639 1.37446 23.9848 1.30968 23.8853C1.2449 23.7857 1.20984 23.6697 1.20859 23.551C1.20735 23.4322 1.23997 23.3155 1.30265 23.2146C1.36532 23.1137 1.45546 23.0328 1.56248 22.9813L7.12498 20.2875L7.66936 21.4125L3.30748 23.5244L19.78 30.9619L35.7437 22.9875L31.5169 21.0163L32.0456 19.8831L37.4456 22.4025C37.552 22.4523 37.6422 22.531 37.7059 22.6296C37.7696 22.7283 37.8042 22.8429 37.8057 22.9603C37.8073 23.0777 37.7758 23.1932 37.7147 23.2935C37.6537 23.3938 37.5656 23.4749 37.4606 23.5275L20.0731 32.215C19.9864 32.2585 19.8907 32.2812 19.7937 32.2813ZM27.5937 19.1125H27.5875V17.8625L27.5937 19.1125Z" fill="white"/>
<path d="M19.7937 36.9188C19.7049 36.9189 19.6171 36.9 19.5362 36.8631L1.57434 28.75C1.46591 28.7012 1.37365 28.6224 1.30841 28.523C1.24316 28.4236 1.20763 28.3076 1.20599 28.1887C1.20435 28.0698 1.23667 27.9529 1.29914 27.8517C1.36162 27.7506 1.45167 27.6693 1.55871 27.6175L6.51496 25.2181L7.05996 26.3431L3.30621 28.1619L19.78 35.5994L35.745 27.6194L32.12 25.9288L32.6487 24.7963L37.4425 27.0338C37.5489 27.0835 37.6391 27.1621 37.7029 27.2607C37.7666 27.3594 37.8013 27.4739 37.8029 27.5914C37.8046 27.7088 37.7731 27.8243 37.7121 27.9246C37.6511 28.025 37.5631 28.1061 37.4581 28.1588L20.0731 36.8531C19.9863 36.8964 19.8907 36.9188 19.7937 36.9188Z" fill="white"/>
</svg>
