<svg width="40" height="40" viewBox="0 0 40 40" fill="none" xmlns="http://www.w3.org/2000/svg">
<path d="M35 6.875H33.125V3.75C33.125 3.40625 32.8438 3.125 32.5 3.125H31.875V2.5C31.875 2.15625 31.5938 1.875 31.25 1.875H30C29.6562 1.875 29.375 2.15625 29.375 2.5V3.125H28.75C28.4062 3.125 28.125 3.40625 28.125 3.75V4.375H11.25V3.75C11.25 3.40625 10.9688 3.125 10.625 3.125C10.2812 3.125 10 3.40625 10 3.75V6.875H6.25C4.525 6.875 3.125 8.275 3.125 10V16.25C3.125 17.2812 3.96875 18.125 5 18.125H5.625V19.375C5.625 20.0625 6.1875 20.625 6.875 20.625H8.75V22.5C8.75 22.8438 9.03125 23.125 9.375 23.125H10V25C10 25.3438 10.2812 25.625 10.625 25.625C10.9688 25.625 11.25 25.3438 11.25 25V23.125H11.875C12.2188 23.125 12.5 22.8438 12.5 22.5V20.625H14.375C15.0625 20.625 15.625 20.0625 15.625 19.375V18.125H28.125V30.625H5C3.96875 30.625 3.125 31.4688 3.125 32.5V34.375H2.5C2.15625 34.375 1.875 34.6562 1.875 35V37.5C1.875 37.8438 2.15625 38.125 2.5 38.125H37.5C37.8438 38.125 38.125 37.8438 38.125 37.5V10C38.125 8.275 36.725 6.875 35 6.875ZM29.375 4.375H31.875V6.875H29.375V4.375ZM11.25 5.625H28.125V6.875H11.25V5.625ZM4.375 16.25V10C4.375 8.96875 5.21875 8.125 6.25 8.125H35C36.0312 8.125 36.875 8.96875 36.875 10V16.875H5C4.65625 16.875 4.375 16.5938 4.375 16.25ZM11.25 21.875H10V20.625H11.25V21.875ZM14.375 19.375H6.875V18.125H14.375V19.375ZM29.375 18.125H36.875V30.625H29.375V18.125ZM4.375 32.5C4.375 32.1562 4.65625 31.875 5 31.875H36.875V34.375H4.375V32.5ZM36.875 36.875H3.125V35.625H36.875V36.875Z" fill="#DE541E"/>
<path d="M13.75 14.375C14.7812 14.375 15.625 13.5312 15.625 12.5C15.625 11.4688 14.7812 10.625 13.75 10.625H7.5C6.46875 10.625 5.625 11.4688 5.625 12.5C5.625 13.5312 6.46875 14.375 7.5 14.375H13.75ZM6.875 12.5C6.875 12.1562 7.15625 11.875 7.5 11.875H13.75C14.0938 11.875 14.375 12.1562 14.375 12.5C14.375 12.8438 14.0938 13.125 13.75 13.125H7.5C7.15625 13.125 6.875 12.8438 6.875 12.5ZM33.125 20C32.0938 20 31.25 20.8438 31.25 21.875C31.25 22.9062 32.0938 23.75 33.125 23.75C34.1562 23.75 35 22.9062 35 21.875C35 20.8438 34.1562 20 33.125 20ZM33.125 22.5C32.7812 22.5 32.5 22.2188 32.5 21.875C32.5 21.5312 32.7812 21.25 33.125 21.25C33.4688 21.25 33.75 21.5312 33.75 21.875C33.75 22.2188 33.4688 22.5 33.125 22.5ZM33.125 25C32.0938 25 31.25 25.8438 31.25 26.875C31.25 27.9062 32.0938 28.75 33.125 28.75C34.1562 28.75 35 27.9062 35 26.875C35 25.8438 34.1562 25 33.125 25ZM33.125 27.5C32.7812 27.5 32.5 27.2188 32.5 26.875C32.5 26.5312 32.7812 26.25 33.125 26.25C33.4688 26.25 33.75 26.5312 33.75 26.875C33.75 27.2188 33.4688 27.5 33.125 27.5Z" fill="#DE541E"/>
</svg>
