<svg width="40" height="40" viewBox="0 0 40 40" fill="none" xmlns="http://www.w3.org/2000/svg">
<g clip-path="url(#clip0_204_27)">
<path d="M24.5242 16.2844L18.5142 21.9609L15.6298 18.9936C15.31 18.6643 14.7835 18.6568 14.4547 18.9766C14.1254 19.2967 14.1179 19.8229 14.4377 20.1521L17.8971 23.7034C18.0517 23.859 18.2606 23.9485 18.4799 23.9531C18.6991 23.9577 18.9117 23.8771 19.0726 23.7281L25.683 17.4931C25.7625 17.4182 25.8264 17.3283 25.8711 17.2286C25.9158 17.129 25.9404 17.0215 25.9435 16.9123C25.9466 16.8031 25.9281 16.6944 25.8891 16.5923C25.8502 16.4903 25.7915 16.3969 25.7164 16.3176C25.3946 15.9832 24.8642 15.9685 24.5242 16.2844Z" fill="#DE541E"/>
<path d="M20.0644 7.5482C13.1957 7.5482 7.61066 13.1333 7.61066 20.0021C7.61066 26.8711 13.1957 32.4562 20.0644 32.4562C26.9334 32.4562 32.5185 26.8711 32.5185 20.002C32.5185 13.1334 26.9334 7.5482 20.0644 7.5482ZM20.0644 30.789C14.1127 30.789 9.27784 25.9456 9.27784 20.002C9.27784 14.0584 14.1127 9.21547 20.0644 9.21547C26.0221 9.21547 30.8513 14.0447 30.8513 20.002C30.8513 25.9593 26.022 30.789 20.0644 30.789Z" fill="#DE541E"/>
<path d="M37.2033 15.4173L37.4784 10.4739C37.4877 10.3116 37.4493 10.15 37.3678 10.0093C37.2863 9.86851 37.1654 9.75474 37.0199 9.68203L32.6185 7.45642L30.3928 3.05504C30.3187 2.91072 30.2046 2.79076 30.0642 2.70947C29.9238 2.62818 29.763 2.58899 29.6009 2.59657L24.6492 2.86357L20.5229 0.137381C20.3868 0.0476955 20.2274 -0.000106812 20.0644 -0.000106812C19.9014 -0.000106812 19.742 0.0476955 19.6059 0.137381L15.4796 2.86357L10.5368 2.5884C10.3744 2.57883 10.2127 2.61718 10.0719 2.69869C9.93116 2.7802 9.81742 2.90127 9.74485 3.04687L7.51882 7.44825L3.11778 9.67395C2.97337 9.74796 2.85333 9.862 2.77202 10.0024C2.69071 10.1429 2.65158 10.3038 2.6593 10.4659L2.93406 15.4091L0.208289 19.5354C0.118603 19.6714 0.0708008 19.8309 0.0708008 19.9938C0.0708008 20.1568 0.118603 20.3162 0.208289 20.4523L2.92597 24.5868L2.6508 29.5301C2.64134 29.6924 2.67974 29.854 2.76124 29.9948C2.84274 30.1356 2.96375 30.2493 3.10928 30.322L7.51065 32.5477L9.73635 36.9491C9.81036 37.0935 9.92441 37.2135 10.0648 37.2948C10.2053 37.3761 10.3662 37.4153 10.5283 37.4075L15.4715 37.1324L19.5978 39.8581C19.7328 39.9506 19.8926 40 20.0562 40C20.2199 40 20.3797 39.9506 20.5147 39.8581L24.641 37.1324L29.5844 37.4075C29.7468 37.4169 29.9083 37.3784 30.049 37.2969C30.1898 37.2155 30.3036 37.0945 30.3763 36.9491L32.6019 32.5477L37.0033 30.322C37.1476 30.2479 37.2676 30.1338 37.3489 29.9934C37.4302 29.853 37.4694 29.6921 37.4618 29.5301L37.1867 24.5869L39.9124 20.4606C40.0021 20.3245 40.0499 20.1651 40.0499 20.0021C40.0499 19.8391 40.0021 19.6797 39.9124 19.5436L37.2033 15.4173ZM35.6526 23.9033C35.5509 24.0524 35.5039 24.2321 35.5195 24.412L35.7777 29.0882L31.6182 31.1888C31.4596 31.2684 31.331 31.3971 31.2516 31.5558L29.1506 35.7152L24.4744 35.4571C24.2954 35.4505 24.1185 35.4968 23.9657 35.5902L20.0645 38.1663L16.1635 35.5902C16.0281 35.4986 15.8685 35.4493 15.7051 35.4486H15.6634L10.9867 35.7072L8.88608 31.5473C8.8066 31.3886 8.67786 31.26 8.51914 31.1807L4.35117 29.0882L4.60975 24.412C4.61625 24.2328 4.56974 24.056 4.47621 23.9033L1.90057 20.0021L4.47621 16.1007C4.57815 15.9518 4.62534 15.7722 4.60975 15.5925L4.35117 10.9158L8.51105 8.81526C8.66961 8.73581 8.79821 8.6072 8.87767 8.44864L10.9783 4.28876L15.6549 4.54734C15.8337 4.55351 16.0105 4.50733 16.1635 4.4138L20.0644 1.83816L23.9657 4.4138C24.1148 4.51573 24.2945 4.56292 24.4744 4.54734L29.1506 4.28876L31.2516 8.44864C31.331 8.6072 31.4596 8.73581 31.6182 8.81526L35.7777 10.9159L35.5195 15.5924C35.5131 15.7712 35.5594 15.948 35.6526 16.1007L38.2287 20.002L35.6526 23.9033Z" fill="#DE541E"/>
</g>
<defs>
<clipPath id="clip0_204_27">
<rect width="40" height="40" fill="white"/>
</clipPath>
</defs>
</svg>
