<svg width="40" height="40" viewBox="0 0 40 40" fill="none" xmlns="http://www.w3.org/2000/svg">
<path d="M36.6875 11.7473C36.2957 10.2745 35.1369 9.11273 33.6625 8.71455C30.9965 8 20.3002 8 20.3002 8C20.3002 8 9.60929 8 6.93793 8.71455C5.46895 9.10727 4.31009 10.2691 3.91292 11.7473C3.2002 14.42 3.2002 20 3.2002 20C3.2002 20 3.2002 25.58 3.91292 28.2527C4.30465 29.7255 5.46351 30.8873 6.93793 31.2855C9.60929 32 20.3002 32 20.3002 32C20.3002 32 30.9965 32 33.6625 31.2855C35.1314 30.8927 36.2903 29.7309 36.6875 28.2527C37.4002 25.58 37.4002 20 37.4002 20C37.4002 20 37.4002 14.42 36.6875 11.7473Z" fill="#8C857F"/>
<path d="M16.8835 25.1436L25.7681 20L16.8835 14.8564V25.1436Z" fill="white"/>
</svg>
